<svg width="216" height="45" viewBox="0 0 216 45" fill="none" xmlns="http://www.w3.org/2000/svg">
                    <path d="M8.79439 2.56641L9.75327 5.50308L12.8563 5.50308L10.3459 7.31805L11.3048 10.2547L8.79439 8.43976L6.28399 10.2547L7.24287 7.31805L4.73247 5.50308L7.8355 5.50308L8.79439 2.56641Z" fill="#1F2933"/>
                    <path d="M1.75863 15.8145L8.5419 9.81445V42.8145L0 40.5645L4.27095 36.3145L3.01479 35.0645H7.7882L1.75863 15.8145Z" fill="#1F2933"/>
                    <path d="M15.8273 15.8145L9.04404 9.81445V42.8145L17.5859 40.5645L13.315 36.3145L14.5712 35.0645H9.79774L15.8273 15.8145Z" fill="#1F2933"/>
                    <path d="M25.8555 17.8319H29.6179V16.9679H26.8282V15.4479H28.9426V14.5839H26.8282V13.0159H29.4491V12.1519H25.8555V17.8319Z" fill="#1F2933"/>
                    <path d="M30.1765 15.7999H32.5964V14.9279H30.1765V15.7999Z" fill="#1F2933"/>
                    <path d="M33.6233 17.8319H35.8823C37.1445 17.8319 37.7555 17.1759 37.7555 16.2719C37.7555 15.4879 37.2892 14.9919 36.622 14.8319V14.8239C37.2088 14.5919 37.4661 14.0639 37.4661 13.5359C37.4661 12.6079 36.7828 12.1519 35.609 12.1519H33.6233V17.8319ZM34.596 14.5039V13.0159L35.5045 13.0079C36.1718 13.0079 36.4773 13.3039 36.4773 13.7519C36.4773 14.2879 36.0833 14.5039 35.5366 14.5039H34.596ZM34.596 16.9679V15.3359H35.609C36.3647 15.3359 36.7426 15.6639 36.7426 16.1679C36.7426 16.7039 36.3647 16.9679 35.7617 16.9679H34.596Z" fill="#1F2933"/>
                    <path d="M40.9226 17.8959C42.3455 17.8959 43.2058 16.9679 43.2058 15.4959V12.1519H42.233V15.4239C42.233 16.3999 41.6863 16.9839 40.9226 16.9839C40.1025 16.9839 39.6202 16.3279 39.6202 15.4239V12.1519H38.6554V15.4959C38.6554 17.0239 39.5719 17.8959 40.9226 17.8959Z" fill="#1F2933"/>
                    <path d="M46.118 17.8959C47.0345 17.8959 48.0877 17.3679 48.0877 16.1919C48.0877 15.0959 47.2998 14.8319 46.319 14.4479C45.6276 14.1839 45.2417 14.0399 45.2498 13.6239C45.2578 13.1999 45.6116 12.9599 46.0537 12.9599C46.4396 12.9599 46.8979 13.1599 47.3642 13.5439L47.943 12.7839C47.3642 12.3279 46.729 12.0879 46.0537 12.0879C45.0649 12.0879 44.2449 12.7839 44.2449 13.6719C44.2449 14.7119 45.1051 15.0959 45.9733 15.3999C46.6969 15.6559 47.0747 15.8159 47.0747 16.3119C47.0747 16.7279 46.7532 16.9999 46.1261 16.9999C45.6357 16.9999 45.0729 16.7519 44.6629 16.2559L44.0519 16.9999C44.6468 17.6159 45.3865 17.8959 46.118 17.8959Z" fill="#1F2933"/>
                    <path d="M49.0952 17.8319H50.068V12.1519H49.0952V17.8319Z" fill="#1F2933"/>
                    <path d="M51.4042 17.8319H52.377V13.8239H52.3931L55.1506 17.8319H56.1394V12.1519H55.1747V16.2319H55.1586L52.3689 12.1519H51.4042V17.8319Z" fill="#1F2933"/>
                    <path d="M57.4354 17.8319H61.1978V16.9679H58.4081V15.4479H60.5225V14.5839H58.4081V13.0159H61.029V12.1519H57.4354V17.8319Z" fill="#1F2933"/>
                    <path d="M63.9226 17.8959C64.8391 17.8959 65.8922 17.3679 65.8922 16.1919C65.8922 15.0959 65.1043 14.8319 64.1235 14.4479C63.4321 14.1839 63.0463 14.0399 63.0543 13.6239C63.0623 13.1999 63.4161 12.9599 63.8582 12.9599C64.2441 12.9599 64.7024 13.1599 65.1687 13.5439L65.7475 12.7839C65.1687 12.3279 64.5336 12.0879 63.8582 12.0879C62.8694 12.0879 62.0494 12.7839 62.0494 13.6719C62.0494 14.7119 62.9096 15.0959 63.7778 15.3999C64.5014 15.6559 64.8792 15.8159 64.8792 16.3119C64.8792 16.7279 64.5577 16.9999 63.9306 16.9999C63.4402 16.9999 62.8774 16.7519 62.4674 16.2559L61.8564 16.9999C62.4513 17.6159 63.191 17.8959 63.9226 17.8959Z" fill="#1F2933"/>
                    <path d="M68.5719 17.8959C69.4884 17.8959 70.5416 17.3679 70.5416 16.1919C70.5416 15.0959 69.7537 14.8319 68.7729 14.4479C68.0815 14.1839 67.6956 14.0399 67.7037 13.6239C67.7117 13.1999 68.0654 12.9599 68.5076 12.9599C68.8935 12.9599 69.3517 13.1599 69.818 13.5439L70.3969 12.7839C69.818 12.3279 69.1829 12.0879 68.5076 12.0879C67.5188 12.0879 66.6987 12.7839 66.6987 13.6719C66.6987 14.7119 67.5589 15.0959 68.4272 15.3999C69.1508 15.6559 69.5286 15.8159 69.5286 16.3119C69.5286 16.7279 69.207 16.9999 68.58 16.9999C68.0896 16.9999 67.5268 16.7519 67.1168 16.2559L66.5058 16.9999C67.1007 17.6159 67.8403 17.8959 68.5719 17.8959Z" fill="#1F2933"/>
                    <path d="M31.343 27.7171H32.356L32.7821 26.4931H35.1135L35.5477 27.7171H36.5606L34.4221 22.0371H33.4735L31.343 27.7171ZM33.0796 25.6611L33.9398 23.1971H33.9559L34.8241 25.6611H33.0796Z" fill="#1F2933"/>
                    <path d="M38.0621 27.7171H38.9705L40.1603 23.4451H40.1764L41.3421 27.7171H42.2506L44.0595 22.0371H43.0304L41.8004 26.1251H41.7843L40.6749 22.0371H39.6458L38.5283 26.1331H38.5123L37.2903 22.0371H36.2532L38.0621 27.7171Z" fill="#1F2933"/>
                    <path d="M43.7429 27.7171H44.7559L45.182 26.4931H47.5134L47.9475 27.7171H48.9605L46.822 22.0371H45.8734L43.7429 27.7171ZM45.4794 25.6611L46.3397 23.1971H46.3557L47.224 25.6611H45.4794Z" fill="#1F2933"/>
                    <path d="M49.7469 27.7171H50.7196V25.6931H51.4834L52.8501 27.7171H54.0158L52.5365 25.5971C53.3726 25.3571 53.8068 24.7651 53.8068 23.8771C53.8068 22.8211 53.2119 22.0371 51.8532 22.0371H49.7469V27.7171ZM50.7196 24.8211V22.9011H51.7085C52.4079 22.9011 52.8018 23.2611 52.8018 23.8611C52.8018 24.4211 52.424 24.8211 51.6442 24.8211H50.7196Z" fill="#1F2933"/>
                    <path d="M54.9458 27.7171H56.7868C58.6198 27.7171 59.7293 26.5571 59.7293 24.8851C59.7293 23.2051 58.5716 22.0371 56.7627 22.0371H54.9458V27.7171ZM55.9186 26.8531V22.9011H56.7788C57.9284 22.9011 58.7243 23.7331 58.7243 24.8851C58.7243 26.0131 57.9365 26.8531 56.7306 26.8531H55.9186Z" fill="#1F2933"/>
                    <path d="M62.4693 27.7811C63.3858 27.7811 64.439 27.2531 64.439 26.0771C64.439 24.9811 63.6511 24.7171 62.6703 24.3331C61.9789 24.0691 61.593 23.9251 61.6011 23.5091C61.6091 23.0851 61.9628 22.8451 62.405 22.8451C62.7909 22.8451 63.2492 23.0451 63.7154 23.4291L64.2943 22.6691C63.7154 22.2131 63.0803 21.9731 62.405 21.9731C61.4162 21.9731 60.5961 22.6691 60.5961 23.5571C60.5961 24.5971 61.4564 24.9811 62.3246 25.2851C63.0482 25.5411 63.426 25.7011 63.426 26.1971C63.426 26.6131 63.1044 26.8851 62.4774 26.8851C61.987 26.8851 61.4242 26.6371 61.0142 26.1411L60.4032 26.8851C60.9981 27.5011 61.7377 27.7811 62.4693 27.7811Z" fill="#1F2933"/>
                    <path d="M40.0515 39.1555H43.5969V38.3075H41.4664L41.4584 38.2835L42.6241 37.0755C43.3235 36.3555 43.5406 35.8355 43.5406 35.2275C43.5406 34.2195 42.7206 33.6115 41.8121 33.6115C40.9117 33.6115 40.3409 34.0595 40.0273 34.6515L40.6946 35.1235C40.9438 34.6915 41.3056 34.4755 41.7478 34.4755C42.2462 34.4755 42.5919 34.8435 42.5919 35.3315C42.5919 35.8035 42.2623 36.2035 41.8121 36.6755L40.0354 38.5395L40.0515 39.1555Z" fill="#1F2933"/>
                    <path d="M46.4326 39.2195C47.7671 39.2195 48.555 38.0675 48.555 36.4115C48.555 34.6195 47.6787 33.6035 46.4326 33.6035C45.1061 33.6035 44.3102 34.7475 44.3102 36.4115C44.3102 38.1955 45.1865 39.2195 46.4326 39.2195ZM46.4326 38.3555C45.7251 38.3555 45.2588 37.6275 45.2588 36.4115C45.2588 35.1795 45.709 34.4595 46.4326 34.4595C47.1561 34.4595 47.6063 35.1795 47.6063 36.4115C47.6063 37.6355 47.1722 38.3555 46.4326 38.3555Z" fill="#1F2933"/>
                    <path d="M49.2089 39.1555H52.7543V38.3075H50.6238L50.6158 38.2835L51.7815 37.0755C52.4809 36.3555 52.698 35.8355 52.698 35.2275C52.698 34.2195 51.878 33.6115 50.9695 33.6115C50.0691 33.6115 49.4983 34.0595 49.1848 34.6515L49.852 35.1235C50.1013 34.6915 50.463 34.4755 50.9052 34.4755C51.4036 34.4755 51.7493 34.8435 51.7493 35.3315C51.7493 35.8035 51.4197 36.2035 50.9695 36.6755L49.1928 38.5395L49.2089 39.1555Z" fill="#1F2933"/>
                    <path d="M54.6333 39.1555H55.5659V33.6595H54.8102L53.1942 34.8275L53.6364 35.5155L54.6333 34.7715V39.1555Z" fill="#1F2933"/>
                    <rect x="26.1289" y="36.0996" width="11.5567" height="0.500001" fill="#1F2933"/>
                    <rect x="58.2852" y="36.0996" width="11.5567" height="0.500001" fill="#1F2933"/>
                    <rect width="44" height="0.502462" transform="matrix(-4.39268e-08 -1 -1 4.3497e-08 93.0156 45)" fill="#1F2933"/>
                    <path d="M137.973 39.8763L138.583 39.7795V34.1755L137.902 34.0875L137.938 33.4805H142.199L142.093 35.1784L141.244 35.152L141.191 34.0875H139.874V36.6124H140.449L140.581 36.0317L141.173 36.0493V37.7912H140.581L140.44 37.193H139.865V39.8675H141.191L141.315 38.7062L142.208 38.7326L142.279 40.5009H137.947L137.973 39.8763Z" fill="#1F2933"/>
                    <path d="M142.674 40.5107L142.701 39.9916L143.178 39.8948V36.3582L142.621 36.3054V35.7776L144.018 35.5753L144.124 35.8744V36.0767C144.46 35.7248 144.867 35.5137 145.388 35.5137C146.149 35.5137 146.714 35.9711 146.714 36.8773V39.886L147.218 39.9828L147.192 40.5019H145.53V37.1412C145.53 36.6573 145.353 36.3846 144.911 36.3846C144.761 36.3846 144.654 36.411 144.54 36.455C144.469 36.5166 144.398 36.6046 144.336 36.6837V39.9036L144.84 40.0004L144.805 40.5195H142.674V40.5107Z" fill="#1F2933"/>
                    <path d="M169.386 40.5107L169.404 39.9916L169.881 39.8948V36.3582L169.324 36.3054V35.7776L170.721 35.5753L170.827 35.8744V36.0767C171.163 35.7248 171.57 35.5137 172.091 35.5137C172.852 35.5137 173.418 35.9711 173.418 36.8773V39.886L173.921 39.9828L173.895 40.5019H172.242V37.1412C172.242 36.6573 172.065 36.3846 171.623 36.3846C171.473 36.3846 171.366 36.411 171.252 36.455C171.181 36.5166 171.11 36.6046 171.048 36.6837V39.9036L171.552 40.0004L171.517 40.5195H169.386V40.5107Z" fill="#1F2933"/>
                    <path d="M149.857 40.4147C149.662 40.4939 149.317 40.5819 148.866 40.5819C148.274 40.5819 147.726 40.3179 147.726 39.4558V36.3591L147.16 36.2711L147.187 35.6553L147.823 35.6289L148.097 34.6875L148.911 34.6523V35.6641H149.786L149.724 36.2799L148.919 36.3679V39.4646C148.919 39.7197 149.061 39.8869 149.326 39.8869H149.804L149.857 40.4147Z" fill="#1F2933"/>
                    <path d="M182.949 40.5106L182.966 40.0003L183.417 39.8948V36.3582L182.887 36.3054V35.7775L184.337 35.5752L184.434 35.9183V36.0327C184.814 35.7512 185.327 35.5664 185.946 35.5664L186.158 35.7512L186.008 37.0884L185.212 37.062L185.132 36.3494C184.947 36.3758 184.77 36.4286 184.62 36.5341V39.9036L185.123 40.0091L185.088 40.5194H182.949V40.5106Z" fill="#1F2933"/>
                    <path d="M162.123 40.5106L162.15 40.0003L162.601 39.8948V36.3582L162.07 36.3054V35.7775L163.52 35.5752L163.617 35.9183V36.0327C163.998 35.7512 164.51 35.5664 165.129 35.5664L165.341 35.7512L165.173 37.0884L164.378 37.062L164.298 36.3494C164.113 36.3758 163.936 36.4286 163.785 36.5341V39.9036L164.289 40.0091L164.254 40.5194H162.123V40.5106Z" fill="#1F2933"/>
                    <path d="M150.209 40.5106L150.236 40.0003L150.687 39.8948V36.3582L150.156 36.3054V35.7775L151.606 35.5752L151.703 35.9183V36.0327C152.084 35.7512 152.596 35.5664 153.206 35.5664L153.419 35.7512L153.268 37.0884L152.473 37.062L152.393 36.3494C152.207 36.3758 152.031 36.4286 151.88 36.5341V39.9036L152.384 40.0091L152.349 40.5194H150.209V40.5106Z" fill="#1F2933"/>
                    <path d="M154.79 38.3582C154.79 39.2028 155.161 39.8538 155.895 39.8538C156.275 39.8538 156.575 39.7746 156.929 39.6074L157.132 40.0737C156.77 40.364 156.239 40.584 155.576 40.584C154.286 40.584 153.543 39.4755 153.543 38.0503C153.543 36.8362 154.082 35.5078 155.559 35.5078C156.849 35.5078 157.336 36.6955 157.336 38.0151L157.212 38.3318L154.79 38.3582ZM154.772 37.7952L156.257 37.7248C156.231 37.1354 156.107 36.2028 155.523 36.2028C155.382 36.2028 155.285 36.2292 155.108 36.3172C154.869 36.7219 154.772 37.4521 154.772 37.7952Z" fill="#1F2933"/>
                    <path d="M175.336 38.3582C175.336 39.2028 175.708 39.8538 176.442 39.8538C176.822 39.8538 177.122 39.7746 177.476 39.6074L177.679 40.0737C177.317 40.364 176.786 40.584 176.123 40.584C174.832 40.584 174.09 39.4755 174.09 38.0503C174.09 36.8362 174.629 35.5078 176.106 35.5078C177.396 35.5078 177.883 36.6955 177.883 38.0151L177.759 38.3318L175.336 38.3582ZM175.319 37.7952L176.804 37.7248C176.777 37.1354 176.654 36.2028 176.07 36.2028C175.929 36.2028 175.831 36.2292 175.655 36.3172C175.416 36.7219 175.319 37.4521 175.319 37.7952Z" fill="#1F2933"/>
                    <path d="M166.704 38.3582C166.704 39.2028 167.075 39.8538 167.809 39.8538C168.189 39.8538 168.489 39.7746 168.843 39.6074L169.046 40.0737C168.684 40.364 168.153 40.584 167.49 40.584C166.2 40.584 165.457 39.4755 165.457 38.0503C165.457 36.8362 165.996 35.5078 167.473 35.5078C168.764 35.5078 169.25 36.6955 169.25 38.0151L169.126 38.3318L166.704 38.3582ZM166.686 37.7952L168.171 37.7248C168.145 37.1354 168.021 36.2028 167.437 36.2028C167.296 36.2028 167.199 36.2292 167.022 36.3172C166.783 36.7219 166.677 37.4521 166.686 37.7952Z" fill="#1F2933"/>
                    <path d="M181.223 40.5106L181.099 40.0884C180.772 40.3963 180.454 40.581 179.959 40.581C179.199 40.581 178.518 40.2027 178.518 39.1558V36.2351L177.961 36.1823V35.716L179.57 35.5312L179.694 35.9535V39.0151C179.694 39.5517 179.915 39.8332 180.348 39.8332C180.472 39.8332 180.631 39.8156 180.772 39.7629C180.852 39.6837 180.931 39.5869 180.993 39.4901V36.2351L180.419 36.1823V35.716L182.045 35.5312L182.169 35.9535V39.8948L182.673 39.9916L182.611 40.5106H181.223Z" fill="#1F2933"/>
                    <path d="M159.75 39.8772C159.494 39.8772 159.29 39.8332 159.131 39.7453V36.6398C159.202 36.5342 159.282 36.4374 159.361 36.3494C159.511 36.2966 159.644 36.2791 159.803 36.2791C160.466 36.2791 160.581 36.9477 160.581 38.1441C160.581 39.2966 160.404 39.6133 160.36 39.7453C160.174 39.8332 159.98 39.8772 159.75 39.8772ZM161.73 37.933C161.73 36.4462 161.288 35.5137 160.183 35.5137C159.45 35.5137 159.105 35.936 158.963 36.1119V35.9447L158.839 35.5225L157.398 35.7248V36.2351L157.955 36.3054V42.3053L157.478 42.4021L157.451 42.9036H159.582L159.617 42.4021L159.114 42.3053V40.4051C159.317 40.5194 159.6 40.5898 159.909 40.5898C161.713 40.5898 161.73 38.7687 161.73 37.933Z" fill="#1F2933"/>
                    <path opacity="0.3" d="M189.732 29.7246H133.668V30.0346H189.732V29.7246Z" fill="#1F2933"/>
                    <path d="M119.277 44.1769C119.277 44.1765 119.278 44.1759 119.278 44.1754C119.288 44.133 119.307 44.0712 119.336 43.9956C119.396 43.8442 119.502 43.6373 119.686 43.4204C120.052 42.9883 120.737 42.5075 122.01 42.3538L122 42.2637L122.01 42.3538C122.811 42.2573 123.72 42.3727 124.434 42.5142C124.789 42.5849 125.095 42.6614 125.311 42.7205C125.413 42.7483 125.496 42.7723 125.554 42.7898C125.533 42.829 125.504 42.8796 125.466 42.9388C125.369 43.0881 125.213 43.2919 124.977 43.5051C124.507 43.9309 123.713 44.3985 122.428 44.5437C121.326 44.6682 120.521 44.5663 119.994 44.4348C119.731 44.3692 119.536 44.2959 119.408 44.2398C119.352 44.2147 119.308 44.193 119.277 44.1769Z" fill="#1F2933" stroke="white" stroke-width="0.311465"/>
                    <path d="M118.937 39.6781L118.936 39.5957L118.937 39.6781C119.758 39.6725 120.605 39.8576 121.25 40.0458C121.572 40.1399 121.842 40.2341 122.031 40.3049C122.125 40.3398 122.199 40.369 122.249 40.3894C122.233 40.4202 122.209 40.4603 122.177 40.507C122.096 40.6225 121.961 40.779 121.745 40.9372C121.313 41.253 120.55 41.5814 119.232 41.5976C118.085 41.6116 117.255 41.4477 116.714 41.2816C116.443 41.1986 116.244 41.115 116.114 41.0527C116.051 41.0226 116.004 40.9974 115.973 40.9797C115.973 40.9791 115.973 40.9784 115.973 40.9778C115.983 40.9432 115.999 40.8926 116.028 40.831C116.085 40.7083 116.19 40.5419 116.383 40.3739C116.766 40.0389 117.508 39.6876 118.937 39.6781Z" fill="#1F2933"/>
                    <path d="M118.937 39.6781L118.936 39.5957L118.937 39.6781ZM118.937 39.6781C119.758 39.6725 120.605 39.8576 121.25 40.0458C121.572 40.1399 121.842 40.2341 122.031 40.3049C122.125 40.3398 122.199 40.369 122.249 40.3894C122.233 40.4202 122.209 40.4603 122.177 40.507C122.096 40.6225 121.961 40.779 121.745 40.9372C121.313 41.253 120.55 41.5814 119.232 41.5976C118.085 41.6116 117.255 41.4477 116.714 41.2816C116.443 41.1986 116.244 41.115 116.114 41.0527C116.051 41.0226 116.004 40.9974 115.973 40.9797C115.973 40.9791 115.973 40.9784 115.973 40.9778C115.983 40.9432 115.999 40.8926 116.028 40.831C116.085 40.7083 116.19 40.5419 116.383 40.3739C116.766 40.0389 117.508 39.6876 118.937 39.6781Z" stroke="white" stroke-width="0.311465"/>
                    <path d="M119.602 37.6381C119.604 37.6396 119.605 37.6411 119.607 37.6426C119.573 37.6809 119.525 37.7333 119.46 37.794C119.322 37.9245 119.11 38.0928 118.822 38.2413C118.246 38.5375 117.358 38.7579 116.115 38.433C115.032 38.1498 114.241 37.6862 113.721 37.2943C113.461 37.0985 113.269 36.9206 113.143 36.7922C113.08 36.7279 113.033 36.6761 113.002 36.6407C113.001 36.64 113.001 36.6394 113 36.6387C113.002 36.636 113.003 36.6334 113.005 36.6306C113.033 36.5885 113.077 36.528 113.138 36.4571C113.26 36.3153 113.451 36.1322 113.725 35.971C114.272 35.6498 115.157 35.4091 116.503 35.7703C117.276 35.9779 118.068 36.459 118.67 36.8926C118.97 37.1087 119.221 37.3116 119.398 37.4607C119.486 37.5351 119.555 37.596 119.602 37.6381Z" fill="#1F2933" stroke="white" stroke-width="0.311465"/>
                    <path d="M116.627 33.8459C116.629 33.8478 116.631 33.8496 116.633 33.8514C116.601 33.8841 116.556 33.9284 116.494 33.9793C116.359 34.0901 116.149 34.2318 115.848 34.3505C115.247 34.5874 114.28 34.7347 112.831 34.3474C111.752 34.0588 110.954 33.5858 110.427 33.1855C110.163 32.9854 109.968 32.8036 109.838 32.6722C109.775 32.6082 109.727 32.556 109.695 32.5198C109.806 32.3966 110.092 32.1118 110.565 31.8879C111.169 31.602 112.085 31.413 113.341 31.8029L113.368 31.7159L113.341 31.8029C114.307 32.1028 115.144 32.6293 115.742 33.0827C116.04 33.3092 116.278 33.5166 116.441 33.6675C116.522 33.7428 116.585 33.8039 116.627 33.8459Z" fill="#1F2933" stroke="white" stroke-width="0.311465"/>
                    <path d="M115.14 30.502C115.215 30.5986 115.273 30.6767 115.312 30.7304C115.275 30.7451 115.226 30.7626 115.166 30.781C115.006 30.8301 114.767 30.885 114.453 30.9056C113.825 30.9467 112.894 30.8515 111.698 30.2954L111.661 30.3728L111.698 30.2954C110.824 29.8887 110.147 29.2597 109.687 28.7299C109.458 28.4653 109.283 28.2263 109.166 28.0537C109.108 27.9681 109.064 27.8988 109.035 27.8511C109.077 27.831 109.135 27.8051 109.21 27.7773C109.368 27.7181 109.595 27.6505 109.88 27.6105C110.448 27.5311 111.244 27.5623 112.168 27.9978H112.168C113.123 28.4475 113.924 29.1506 114.487 29.744C114.768 30.0403 114.99 30.3083 115.14 30.502Z" fill="#1F2933" stroke="white" stroke-width="0.311465"/>
                    <path d="M113.339 24.1022C113.842 24.8301 114.108 25.6445 114.339 26.3707C114.345 26.3885 114.351 26.4063 114.356 26.4238C114.465 26.7654 114.568 27.0883 114.685 27.3672C114.771 27.5703 114.866 27.7545 114.981 27.9086C114.965 27.9059 114.949 27.903 114.932 27.9C114.749 27.8664 114.485 27.8044 114.162 27.6912C113.515 27.4651 112.632 27.0345 111.692 26.2161C110.815 25.4526 110.313 24.4363 110.029 23.6062C109.887 23.192 109.801 22.8257 109.75 22.5631C109.725 22.4321 109.708 22.3269 109.698 22.2548C109.697 22.2483 109.696 22.2419 109.695 22.2358C109.701 22.2356 109.706 22.2354 109.712 22.2352C109.78 22.2334 109.878 22.234 109.999 22.2416C110.242 22.2567 110.578 22.2999 110.957 22.4071C111.714 22.6213 112.64 23.0904 113.339 24.1022L113.414 24.0508L113.339 24.1022Z" fill="#1F2933"/>
                    <path d="M113.339 24.1022C113.842 24.8301 114.108 25.6445 114.339 26.3707C114.345 26.3885 114.351 26.4063 114.356 26.4238C114.465 26.7654 114.568 27.0883 114.685 27.3672C114.771 27.5703 114.866 27.7545 114.981 27.9086C114.965 27.9059 114.949 27.903 114.932 27.9C114.749 27.8664 114.485 27.8044 114.162 27.6912C113.515 27.4651 112.632 27.0345 111.692 26.2161C110.815 25.4526 110.313 24.4363 110.029 23.6062C109.887 23.192 109.801 22.8257 109.75 22.5631C109.725 22.4321 109.708 22.3269 109.698 22.2548C109.697 22.2483 109.696 22.2419 109.695 22.2358C109.701 22.2356 109.706 22.2354 109.712 22.2352C109.78 22.2334 109.878 22.234 109.999 22.2416C110.242 22.2567 110.578 22.2999 110.957 22.4071C111.714 22.6213 112.64 23.0904 113.339 24.1022ZM113.339 24.1022L113.414 24.0508L113.339 24.1022Z" stroke="white" stroke-width="0.311465"/>
                    <path d="M114.65 23.3144C114.651 23.422 114.651 23.5089 114.651 23.5704C114.622 23.5626 114.588 23.5525 114.547 23.5388C114.417 23.4947 114.228 23.4147 113.997 23.272C113.537 22.9867 112.911 22.4499 112.264 21.4443C111.66 20.5054 111.44 19.4297 111.373 18.5849C111.34 18.1631 111.344 17.8003 111.357 17.5433C111.364 17.4149 111.372 17.3129 111.379 17.2434C111.38 17.2382 111.38 17.2333 111.381 17.2285C111.384 17.2294 111.388 17.2302 111.391 17.2312C111.452 17.2465 111.538 17.2715 111.644 17.3091C111.855 17.3843 112.142 17.509 112.452 17.7045C113.072 18.0951 113.781 18.7674 114.162 19.8923C114.437 20.705 114.559 21.6497 114.612 22.3945C114.639 22.7663 114.648 23.0869 114.65 23.3144Z" fill="#1F2933" stroke="white" stroke-width="0.311465"/>
                    <path d="M113.55 12.8887C113.554 12.8898 113.558 12.891 113.562 12.8923C113.621 12.9116 113.706 12.9428 113.808 12.9886C114.012 13.0803 114.285 13.2305 114.567 13.4627C115.131 13.9257 115.736 14.7174 115.906 16.0324C116.02 16.911 115.965 17.8152 115.881 18.5014C115.838 18.8442 115.789 19.1316 115.75 19.3333C115.731 19.4321 115.715 19.5105 115.703 19.5643C115.688 19.5598 115.671 19.554 115.651 19.5466C115.562 19.5124 115.426 19.4437 115.254 19.3046C114.91 19.0263 114.422 18.4671 113.876 17.3457L113.793 17.3846L113.876 17.3457C113.367 16.3024 113.29 15.1679 113.342 14.2901C113.368 13.8518 113.426 13.4792 113.478 13.2164C113.503 13.0851 113.527 12.9813 113.545 12.9106C113.547 12.9029 113.549 12.8956 113.55 12.8887Z" fill="#1F2933" stroke="white" stroke-width="0.311465"/>
                    <path d="M117.359 14.8963C117.326 14.8807 117.284 14.8593 117.234 14.8315C117.105 14.7592 116.926 14.6433 116.729 14.4698C116.336 14.1233 115.871 13.5457 115.596 12.6233C115.138 11.0926 115.309 9.97808 115.589 9.24929C115.73 8.8842 115.898 8.61447 116.031 8.43671C116.097 8.34782 116.154 8.28196 116.194 8.23872C116.201 8.2322 116.206 8.22619 116.211 8.2207C116.218 8.22467 116.224 8.22906 116.232 8.23386C116.279 8.26525 116.345 8.31344 116.425 8.37921C116.585 8.51072 116.797 8.71161 117.012 8.98767C117.442 9.53925 117.884 10.3913 117.947 11.5924C117.993 12.4603 117.838 13.3071 117.67 13.9386C117.587 14.2539 117.5 14.5147 117.435 14.6963C117.404 14.7811 117.378 14.8486 117.359 14.8963Z" fill="#1F2933" stroke="white" stroke-width="0.311465"/>
                    <path d="M119.666 11.2225C119.652 11.1937 119.636 11.1603 119.618 11.1224C119.548 10.9707 119.453 10.7476 119.357 10.4634C119.165 9.895 118.967 9.08354 118.947 8.11239C118.917 6.67056 119.306 5.76965 119.696 5.23083C119.891 4.96074 120.088 4.78011 120.235 4.66742C120.309 4.61117 120.37 4.57187 120.412 4.54688C120.419 4.56214 120.428 4.58061 120.438 4.60261C120.467 4.66724 120.501 4.75419 120.538 4.86031C120.611 5.0724 120.693 5.35812 120.764 5.68988C120.904 6.35443 120.994 7.197 120.865 7.99999C120.728 8.86015 120.41 9.69753 120.125 10.3217C119.983 10.6334 119.849 10.891 119.751 11.0704C119.718 11.13 119.69 11.181 119.666 11.2225Z" fill="#1F2933" stroke="white" stroke-width="0.311465"/>
                    <path d="M122.658 7.8846C122.498 7.49524 122.184 6.55506 122.262 4.79852C122.321 3.48703 122.75 2.5751 123.164 1.99181C123.37 1.69984 123.573 1.4898 123.724 1.35319C123.794 1.28932 123.853 1.24154 123.895 1.20898C123.944 1.30836 123.994 1.45322 124.04 1.638C124.1 1.87687 124.152 2.17416 124.186 2.50809C124.255 3.17625 124.256 3.98525 124.123 4.75908C123.963 5.6896 123.575 6.49731 123.226 7.07373C123.051 7.36161 122.887 7.59092 122.766 7.74802C122.724 7.80243 122.688 7.84814 122.658 7.8846Z" fill="#1F2933" stroke="white" stroke-width="0.311465"/>
                    <path d="M124.891 5.87987C125.093 5.46027 125.756 4.35193 127.037 3.21178L126.981 3.14422L127.037 3.21178C127.973 2.37825 128.941 2.19062 129.675 2.21035C130.043 2.22023 130.352 2.28216 130.569 2.34151C130.678 2.37117 130.763 2.40013 130.821 2.42151C130.826 2.4236 130.832 2.42561 130.837 2.42754C130.798 2.53734 130.715 2.69607 130.591 2.88996C130.44 3.12748 130.232 3.40782 129.987 3.69785C129.496 4.27877 128.858 4.89196 128.218 5.27696C127.654 5.61616 126.795 5.76827 126.066 5.83373C125.703 5.86628 125.377 5.87713 125.141 5.87981C125.039 5.88099 124.954 5.88063 124.891 5.87987Z" fill="#1F2933" stroke="white" stroke-width="0.311465"/>
                    <path d="M125.277 9.18125C123.564 9.3332 122.63 8.99363 122.25 8.83735C122.282 8.80593 122.322 8.76683 122.372 8.72177C122.508 8.5975 122.71 8.42787 122.973 8.24782C123.499 7.88754 124.267 7.48683 125.237 7.32234C126.68 7.07784 127.794 7.28564 128.527 7.66377C128.492 7.70047 128.445 7.74901 128.385 7.80622C128.245 7.94037 128.035 8.12184 127.756 8.30953C127.199 8.68488 126.369 9.08442 125.277 9.18125Z" fill="#1F2933" stroke="white" stroke-width="0.311465"/>
                    <path d="M119.948 11.8278C119.945 11.826 119.941 11.8242 119.938 11.8225C119.967 11.7918 120.004 11.7538 120.05 11.7099C120.176 11.5879 120.365 11.4212 120.614 11.2437C121.11 10.8887 121.842 10.4919 122.783 10.3235L122.768 10.238L122.783 10.3235C123.513 10.1929 124.048 10.1956 124.487 10.2817C124.893 10.361 125.222 10.5122 125.553 10.7028C125.526 10.738 125.489 10.7844 125.441 10.8389C125.327 10.9691 125.152 11.1456 124.91 11.3285C124.428 11.6941 123.68 12.0861 122.622 12.1851C121.689 12.2725 121.059 12.1974 120.631 12.0878C120.302 12.0035 120.095 11.9004 119.948 11.8278Z" fill="#1F2933" stroke="white" stroke-width="0.311465"/>
                    <path d="M120.965 15.9814C119.299 16.4636 118.078 16.1201 117.625 15.992C117.654 15.9504 117.692 15.8972 117.74 15.8347C117.863 15.672 118.046 15.4464 118.287 15.196C118.768 14.6949 119.477 14.0973 120.388 13.7054L120.353 13.6222L120.388 13.7054C121.325 13.302 122.029 13.199 122.595 13.2324C123.114 13.263 123.523 13.4082 123.902 13.5521C123.561 14.0693 122.543 15.5247 120.965 15.9814L120.989 16.0683L120.965 15.9814Z" fill="#1F2933"/>
                    <path d="M120.965 15.9814C119.299 16.4636 118.078 16.1201 117.625 15.992C117.654 15.9504 117.692 15.8972 117.74 15.8347C117.863 15.672 118.046 15.4464 118.287 15.196C118.768 14.6949 119.477 14.0973 120.388 13.7054L120.353 13.6222L120.388 13.7054C121.325 13.302 122.029 13.199 122.595 13.2324C123.114 13.263 123.523 13.4082 123.902 13.5521C123.561 14.0693 122.543 15.5247 120.965 15.9814ZM120.965 15.9814L120.989 16.0683L120.965 15.9814Z" stroke="white" stroke-width="0.311465"/>
                    <path d="M116.301 19.7627C116.326 19.7178 116.36 19.6605 116.402 19.593C116.51 19.417 116.674 19.1721 116.891 18.8977C117.326 18.3483 117.975 17.683 118.835 17.2132C119.721 16.7296 120.399 16.5712 120.953 16.5629C121.46 16.5552 121.868 16.6732 122.247 16.7921C121.951 17.3474 121.058 18.9145 119.553 19.5008C117.963 20.1198 116.75 19.8598 116.301 19.7627Z" fill="#1F2933" stroke="white" stroke-width="0.311465"/>
                    <path d="M119.005 22.9431C117.666 23.9448 116.197 23.9186 115.645 23.9036C115.865 23.596 116.061 23.2809 116.257 22.9643C116.361 22.7964 116.465 22.6282 116.573 22.4605C116.919 21.925 117.315 21.3839 117.899 20.844C118.613 20.1838 119.272 19.9622 119.854 19.9136C120.281 19.8779 120.664 19.9344 121.009 19.9855C121.095 19.9982 121.179 20.0106 121.26 20.021C120.843 20.8365 120.223 22.032 119.005 22.9431Z" fill="#1F2933" stroke="white" stroke-width="0.311465"/>
                    <path d="M115.371 27.9101C115.351 27.9105 115.331 27.9111 115.312 27.9114C115.466 27.6491 115.601 27.4007 115.734 27.1574C116.14 26.4137 116.519 25.7186 117.3 24.8274C117.959 24.0746 118.596 23.7694 119.173 23.6482C119.602 23.5582 119.994 23.5688 120.352 23.5785C120.436 23.5807 120.518 23.5831 120.598 23.5838C120.257 24.4472 119.691 25.6678 118.543 26.7346C117.324 27.8665 115.96 27.897 115.371 27.9101Z" fill="#1F2933" stroke="white" stroke-width="0.311465"/>
                    <path d="M117.128 30.8157C116.959 30.8459 116.794 30.876 116.637 30.9153C117.001 30.3172 117.195 29.9064 117.37 29.537C117.389 29.4968 117.408 29.4571 117.426 29.4177C117.634 28.9813 117.837 28.5801 118.307 27.947C119.202 26.7404 120.303 26.6528 121.13 26.5869C121.175 26.5832 121.218 26.5797 121.262 26.5762C121.006 27.4201 120.615 28.5175 119.594 29.6229C119.028 30.2356 118.453 30.5018 117.913 30.6508C117.656 30.7214 117.408 30.7656 117.169 30.8082C117.156 30.8106 117.142 30.8133 117.128 30.8157Z" fill="#1F2933" stroke="white" stroke-width="0.311465"/>
                    <path d="M117.953 33.919C118.201 33.3454 118.322 32.8617 118.432 32.4223C118.436 32.4039 118.441 32.3854 118.446 32.3672C118.573 31.8585 118.691 31.4114 118.981 30.9364C119.461 30.1496 119.931 29.7474 120.383 29.5299C120.789 29.334 121.188 29.2838 121.587 29.2461C121.434 29.6798 121.324 30.0145 121.236 30.2876C121.217 30.3465 121.199 30.4023 121.182 30.4557C121.112 30.6746 121.056 30.8502 120.998 31.0103C120.856 31.4042 120.705 31.7028 120.317 32.305L120.394 32.3523L120.317 32.305C119.749 33.1873 119.035 33.4762 118.347 33.7551C118.214 33.8088 118.083 33.8619 117.953 33.919Z" fill="#1F2933" stroke="white" stroke-width="0.311465"/>
                    <path d="M120.181 36.4129C120.099 36.4718 120.018 36.5303 119.938 36.5887C120.07 35.9716 120.072 35.5372 120.073 35.1499C120.073 35.1421 120.073 35.1343 120.073 35.1265C120.075 34.6883 120.08 34.3126 120.277 33.7807L120.19 33.7499L120.277 33.7807C120.605 32.8984 120.999 32.4045 121.411 32.0997C121.786 31.8231 122.181 31.6969 122.58 31.582C122.564 31.8058 122.556 32.0135 122.548 32.2122C122.515 33.0263 122.488 33.6896 121.962 34.6816C121.726 35.1259 121.362 35.4958 120.958 35.828C120.703 36.0378 120.438 36.2281 120.181 36.4129Z" fill="#1F2933" stroke="white" stroke-width="0.311465"/>
                    <path d="M123.778 33.922C123.778 33.922 123.778 33.922 123.778 33.9219C123.778 33.922 123.778 33.9222 123.778 33.9222C123.796 33.9617 123.82 34.0201 123.849 34.0953C123.907 34.2459 123.982 34.4634 124.051 34.7301C124.187 35.2638 124.296 35.9906 124.188 36.769C124.033 37.879 123.679 38.5087 123.371 38.8598C123.216 39.0357 123.072 39.1428 122.968 39.2055C122.925 39.2315 122.889 39.2499 122.862 39.2624C122.846 39.2326 122.825 39.1911 122.801 39.1383C122.743 39.0137 122.666 38.8252 122.591 38.572C122.442 38.066 122.299 37.3013 122.331 36.2741L122.25 36.2711L122.331 36.2741C122.365 35.1895 122.749 34.6015 123.114 34.2833C123.298 34.1231 123.48 34.0291 123.616 33.9754C123.684 33.9487 123.74 33.9319 123.778 33.922Z" fill="#1F2933" stroke="white" stroke-width="0.311465"/>
                    <path d="M125.699 41.53C125.661 41.5573 125.628 41.5784 125.601 41.5944C125.583 41.5623 125.559 41.5198 125.532 41.4676C125.465 41.336 125.373 41.142 125.281 40.8945C125.096 40.3997 124.907 39.6913 124.892 38.8393C124.868 37.5383 125.253 36.8958 125.624 36.577C125.811 36.4166 125.999 36.3342 126.139 36.2921C126.209 36.2711 126.267 36.26 126.307 36.2543C126.308 36.2541 126.309 36.2541 126.309 36.2539C126.311 36.2562 126.312 36.2584 126.313 36.2608C126.332 36.3009 126.36 36.3602 126.393 36.4365C126.458 36.5894 126.544 36.8098 126.625 37.0797C126.788 37.6203 126.929 38.3558 126.85 39.141C126.748 40.1501 126.411 40.7747 126.105 41.1453C125.952 41.3311 125.806 41.4541 125.699 41.53Z" fill="#1F2933" stroke="white" stroke-width="0.311465"/>
                    <path d="M204.764 44.1754C204.765 44.1759 204.765 44.1765 204.765 44.1769C204.734 44.193 204.691 44.2147 204.634 44.2398C204.506 44.2959 204.312 44.3692 204.048 44.4348C203.521 44.5663 202.716 44.6682 201.614 44.5437C200.329 44.3985 199.536 43.9309 199.065 43.5051C198.829 43.2919 198.673 43.0881 198.576 42.9388C198.538 42.8796 198.509 42.829 198.488 42.7898C198.547 42.7723 198.629 42.7483 198.731 42.7205C198.948 42.6614 199.253 42.5849 199.609 42.5142C200.322 42.3727 201.231 42.2573 202.032 42.3538L202.042 42.2637L202.032 42.3538C203.305 42.5075 203.99 42.9883 204.357 43.4204C204.541 43.6373 204.646 43.8442 204.706 43.9956C204.735 44.0712 204.754 44.133 204.764 44.1754Z" fill="#1F2933" stroke="white" stroke-width="0.311465"/>
                    <path d="M205.105 39.6781L205.106 39.5957L205.105 39.6781C206.534 39.6876 207.276 40.0389 207.659 40.3739C207.852 40.5419 207.957 40.7083 208.014 40.831C208.043 40.8926 208.06 40.9432 208.069 40.9778C208.069 40.9784 208.069 40.9791 208.07 40.9797C208.038 40.9974 207.991 41.0226 207.928 41.0527C207.798 41.115 207.599 41.1986 207.328 41.2816C206.787 41.4477 205.957 41.6116 204.81 41.5976C203.492 41.5814 202.729 41.253 202.297 40.9372C202.081 40.779 201.946 40.6225 201.866 40.507C201.833 40.4603 201.809 40.4202 201.793 40.3894C201.844 40.369 201.917 40.3398 202.011 40.3049C202.2 40.2341 202.47 40.1399 202.792 40.0458C203.437 39.8576 204.284 39.6725 205.105 39.6781Z" fill="#1F2933"/>
                    <path d="M205.105 39.6781L205.106 39.5957L205.105 39.6781ZM205.105 39.6781C206.534 39.6876 207.276 40.0389 207.659 40.3739C207.852 40.5419 207.957 40.7083 208.014 40.831C208.043 40.8926 208.06 40.9432 208.069 40.9778C208.069 40.9784 208.069 40.9791 208.07 40.9797C208.038 40.9974 207.991 41.0226 207.928 41.0527C207.798 41.115 207.599 41.1986 207.328 41.2816C206.787 41.4477 205.957 41.6116 204.81 41.5976C203.492 41.5814 202.729 41.253 202.297 40.9372C202.081 40.779 201.946 40.6225 201.866 40.507C201.833 40.4603 201.809 40.4202 201.793 40.3894C201.844 40.369 201.917 40.3398 202.011 40.3049C202.2 40.2341 202.47 40.1399 202.792 40.0458C203.437 39.8576 204.284 39.6725 205.105 39.6781Z" stroke="white" stroke-width="0.311465"/>
                    <path d="M211.035 36.6306C211.037 36.6334 211.039 36.636 211.04 36.6387C211.04 36.6394 211.039 36.64 211.039 36.6407C211.008 36.6761 210.961 36.7279 210.898 36.7922C210.771 36.9206 210.579 37.0985 210.319 37.2943C209.799 37.6862 209.008 38.1498 207.925 38.433C206.683 38.7579 205.794 38.5375 205.219 38.2413C204.93 38.0928 204.719 37.9245 204.58 37.794C204.516 37.7333 204.467 37.6809 204.434 37.6426C204.435 37.6411 204.437 37.6396 204.439 37.6381C204.486 37.596 204.555 37.5351 204.643 37.4607C204.819 37.3116 205.07 37.1087 205.371 36.8926C205.972 36.459 206.764 35.9779 207.538 35.7703C208.883 35.4091 209.769 35.6498 210.315 35.971C210.589 36.1322 210.78 36.3153 210.902 36.4571C210.963 36.528 211.007 36.5885 211.035 36.6306Z" fill="#1F2933" stroke="white" stroke-width="0.311465"/>
                    <path d="M207.549 33.9793C207.487 33.9284 207.441 33.8841 207.41 33.8514C207.412 33.8496 207.414 33.8478 207.416 33.8459C207.458 33.8039 207.52 33.7428 207.602 33.6675C207.765 33.5166 208.002 33.3092 208.301 33.0827C208.898 32.6293 209.736 32.1028 210.702 31.8029L210.675 31.7159L210.702 31.8029C211.957 31.413 212.873 31.602 213.477 31.8879C213.951 32.1118 214.236 32.3966 214.347 32.5198C214.316 32.556 214.268 32.6082 214.205 32.6722C214.075 32.8036 213.879 32.9854 213.616 33.1855C213.088 33.5858 212.291 34.0588 211.212 34.3474C209.763 34.7347 208.796 34.5874 208.195 34.3505C207.894 34.2318 207.683 34.0901 207.549 33.9793Z" fill="#1F2933" stroke="white" stroke-width="0.311465"/>
                    <path d="M211.87 27.9976L211.832 27.9202L211.87 27.9976C212.794 27.5623 213.591 27.5311 214.159 27.6106C214.443 27.6505 214.671 27.7181 214.828 27.7773C214.903 27.8051 214.961 27.831 215.003 27.8511C214.974 27.8988 214.93 27.9681 214.872 28.0539C214.755 28.2263 214.581 28.4653 214.351 28.7299C213.892 29.2597 213.215 29.8886 212.34 30.2954L212.378 30.373L212.34 30.2954C211.145 30.8515 210.214 30.9468 209.586 30.9055C209.272 30.8849 209.032 30.8302 208.872 30.7809C208.813 30.7626 208.764 30.7451 208.727 30.7303C208.765 30.6765 208.823 30.5984 208.898 30.5018C209.049 30.3081 209.27 30.0401 209.551 29.7438C210.114 29.1504 210.915 28.4473 211.87 27.9976Z" fill="#1F2933"/>
                    <path d="M211.87 27.9976L211.832 27.9202L211.87 27.9976ZM211.87 27.9976C212.794 27.5623 213.591 27.5311 214.159 27.6106C214.443 27.6505 214.671 27.7181 214.828 27.7773C214.903 27.8051 214.961 27.831 215.003 27.8511C214.974 27.8988 214.93 27.9681 214.872 28.0539C214.755 28.2263 214.581 28.4653 214.351 28.7299C213.892 29.2597 213.215 29.8886 212.34 30.2954L212.378 30.373L212.34 30.2954C211.145 30.8515 210.214 30.9468 209.586 30.9055C209.272 30.8849 209.032 30.8302 208.872 30.7809C208.813 30.7626 208.764 30.7451 208.727 30.7303C208.765 30.6765 208.823 30.5984 208.898 30.5018C209.049 30.3081 209.27 30.0401 209.551 29.7438C210.114 29.1504 210.915 28.4473 211.87 27.9976Z" stroke="white" stroke-width="0.311465"/>
                    <path d="M214.327 22.2353C214.333 22.2355 214.339 22.2355 214.344 22.2359C214.343 22.2418 214.342 22.2482 214.341 22.2547C214.331 22.3268 214.315 22.432 214.289 22.5632C214.238 22.8256 214.152 23.1919 214.01 23.6063C213.727 24.4363 213.224 25.4525 212.347 26.2161C211.408 27.0344 210.524 27.4653 209.878 27.6914C209.554 27.8044 209.29 27.8664 209.107 27.9C209.09 27.903 209.074 27.9059 209.059 27.9086C209.173 27.7545 209.268 27.5705 209.354 27.3674C209.472 27.0885 209.574 26.7657 209.683 26.4241C209.689 26.4064 209.694 26.3887 209.7 26.371C209.931 25.6446 210.197 24.8303 210.7 24.1023C211.4 23.0904 212.326 22.6214 213.083 22.407C213.461 22.3 213.797 22.2568 214.04 22.2416C214.162 22.2341 214.259 22.2333 214.327 22.2353Z" fill="#1F2933" stroke="white" stroke-width="0.311465"/>
                    <path d="M209.494 23.5388C209.454 23.5525 209.42 23.5626 209.391 23.5704C209.391 23.5089 209.39 23.422 209.391 23.3144C209.394 23.0869 209.403 22.7663 209.43 22.3945C209.483 21.6497 209.605 20.705 209.88 19.8923C210.261 18.7674 210.97 18.0951 211.589 17.7045C211.899 17.509 212.187 17.3843 212.398 17.3091C212.504 17.2715 212.59 17.2465 212.651 17.2312C212.654 17.2302 212.658 17.2294 212.661 17.2285C212.662 17.2333 212.662 17.2382 212.663 17.2434C212.669 17.3129 212.678 17.4149 212.684 17.5433C212.697 17.8003 212.702 18.1631 212.668 18.5849C212.601 19.4297 212.382 20.5054 211.778 21.4443L211.849 21.4924L211.778 21.4443C211.131 22.4499 210.505 22.9867 210.044 23.272C209.814 23.4147 209.625 23.4947 209.494 23.5388Z" fill="#1F2933" stroke="white" stroke-width="0.311465"/>
                    <path d="M210.162 17.3457L210.244 17.3846L210.162 17.3457C209.615 18.4671 209.127 19.0263 208.783 19.3046C208.612 19.4437 208.476 19.5124 208.386 19.5466C208.367 19.554 208.349 19.5598 208.334 19.5643C208.322 19.5105 208.306 19.4321 208.287 19.3333C208.248 19.1316 208.199 18.8442 208.157 18.5014C208.072 17.8152 208.017 16.911 208.131 16.0324C208.301 14.7174 208.906 13.9257 209.47 13.4627C209.752 13.2305 210.025 13.0803 210.229 12.9886C210.331 12.9428 210.416 12.9116 210.476 12.8923C210.48 12.891 210.483 12.8898 210.487 12.8887C210.489 12.8956 210.491 12.9029 210.492 12.9106C210.51 12.9813 210.534 13.0851 210.56 13.2164C210.611 13.4792 210.669 13.8518 210.695 14.2901C210.747 15.1679 210.671 16.3024 210.162 17.3457Z" fill="#1F2933"/>
                    <path d="M210.162 17.3457L210.244 17.3846L210.162 17.3457ZM210.162 17.3457C209.615 18.4671 209.127 19.0263 208.783 19.3046C208.612 19.4437 208.476 19.5124 208.386 19.5466C208.367 19.554 208.349 19.5598 208.334 19.5643C208.322 19.5105 208.306 19.4321 208.287 19.3333C208.248 19.1316 208.199 18.8442 208.157 18.5014C208.072 17.8152 208.017 16.911 208.131 16.0324C208.301 14.7173 208.906 13.9257 209.47 13.4627C209.752 13.2305 210.025 13.0803 210.229 12.9886C210.331 12.9428 210.416 12.9116 210.476 12.8923C210.48 12.891 210.483 12.8898 210.487 12.8887C210.489 12.8956 210.491 12.9029 210.492 12.9106C210.51 12.9813 210.534 13.0851 210.56 13.2164C210.611 13.4792 210.669 13.8518 210.695 14.2901C210.747 15.1679 210.671 16.3024 210.162 17.3457Z" stroke="white" stroke-width="0.311465"/>
                    <path d="M206.682 14.8963C206.663 14.8486 206.637 14.7811 206.607 14.6963C206.541 14.5147 206.455 14.2539 206.371 13.9386C206.204 13.3071 206.048 12.4603 206.094 11.5925C206.157 10.3913 206.599 9.53925 207.029 8.98767C207.244 8.71161 207.456 8.51072 207.616 8.37921C207.696 8.31344 207.762 8.26525 207.809 8.23386C207.817 8.22906 207.823 8.22467 207.83 8.2207C207.835 8.22619 207.841 8.2322 207.847 8.23872C207.887 8.28196 207.944 8.34782 208.011 8.43671C208.143 8.61447 208.311 8.8842 208.452 9.24929C208.732 9.97808 208.903 11.0926 208.446 12.6233C208.17 13.5457 207.705 14.1233 207.312 14.4698C207.116 14.6433 206.937 14.7592 206.807 14.8315C206.757 14.8593 206.715 14.8807 206.682 14.8963Z" fill="#1F2933" stroke="white" stroke-width="0.311465"/>
                    <path d="M204.422 11.1224C204.405 11.1603 204.389 11.1937 204.375 11.2225C204.351 11.181 204.322 11.13 204.29 11.0704C204.192 10.891 204.058 10.6334 203.916 10.3217C203.631 9.69753 203.313 8.86015 203.175 7.99999C203.047 7.197 203.136 6.35443 203.277 5.68988C203.347 5.35812 203.43 5.0724 203.503 4.86031C203.54 4.75419 203.574 4.66724 203.603 4.60261C203.613 4.58061 203.621 4.56214 203.629 4.54688C203.671 4.57187 203.732 4.61117 203.805 4.66742C203.953 4.78011 204.149 4.96074 204.345 5.23083C204.735 5.76965 205.124 6.67056 205.094 8.11239C205.073 9.08354 204.876 9.895 204.684 10.4634C204.588 10.7476 204.493 10.9707 204.422 11.1224Z" fill="#1F2933" stroke="white" stroke-width="0.311465"/>
                    <path d="M201.386 7.8846C201.356 7.84814 201.32 7.80247 201.278 7.7481C201.158 7.591 200.994 7.36168 200.819 7.07383C200.47 6.49744 200.082 5.68976 199.922 4.75927C199.789 3.98532 199.789 3.17628 199.858 2.50811C199.893 2.17417 199.944 1.8769 200.004 1.63804C200.05 1.45322 200.101 1.30835 200.149 1.20898C200.192 1.24154 200.251 1.28933 200.321 1.35322C200.472 1.48983 200.674 1.69985 200.881 1.99181C201.294 2.57508 201.724 3.48699 201.782 4.79844C201.86 6.5552 201.547 7.49536 201.386 7.8846Z" fill="#1F2933" stroke="white" stroke-width="0.311465"/>
                    <path d="M197.003 3.21178L197.059 3.14422L197.003 3.21178C198.284 4.35193 198.947 5.46027 199.149 5.87987C199.086 5.88063 199.001 5.88099 198.899 5.87981C198.663 5.87713 198.337 5.86628 197.974 5.83373C197.245 5.76827 196.386 5.61616 195.822 5.27696L195.779 5.35397L195.822 5.27696C195.182 4.89196 194.544 4.27877 194.053 3.69785C193.807 3.40782 193.6 3.12748 193.448 2.88996C193.324 2.69607 193.242 2.53734 193.203 2.42754C193.208 2.42561 193.214 2.4236 193.219 2.42151C193.277 2.40013 193.362 2.37117 193.47 2.34151C193.687 2.28216 193.997 2.22023 194.364 2.21035C195.099 2.19062 196.067 2.37825 197.003 3.21178Z" fill="#1F2933"/>
                    <path d="M197.003 3.21178L197.059 3.14422L197.003 3.21178ZM197.003 3.21178C198.284 4.35193 198.947 5.46027 199.149 5.87987C199.086 5.88063 199.001 5.88099 198.899 5.87981C198.663 5.87713 198.337 5.86628 197.974 5.83373C197.245 5.76827 196.386 5.61616 195.822 5.27696L195.779 5.35397L195.822 5.27696C195.182 4.89196 194.544 4.27877 194.053 3.69785C193.807 3.40782 193.6 3.12748 193.448 2.88996C193.324 2.69607 193.242 2.53734 193.203 2.42754C193.208 2.42561 193.214 2.4236 193.219 2.42151C193.277 2.40013 193.362 2.37117 193.47 2.34151C193.687 2.28216 193.997 2.22023 194.364 2.21035C195.099 2.19062 196.067 2.37825 197.003 3.21178Z" stroke="white" stroke-width="0.311465"/>
                    <path d="M201.792 8.83735C201.412 8.99361 200.478 9.3332 198.765 9.18125C197.673 9.08443 196.843 8.68488 196.286 8.30953C196.007 8.12184 195.797 7.94037 195.657 7.80622C195.597 7.74901 195.55 7.70047 195.516 7.66377C196.248 7.28564 197.362 7.07784 198.805 7.32234C199.775 7.48683 200.543 7.88754 201.07 8.24782C201.333 8.42787 201.535 8.5975 201.671 8.72177C201.72 8.76683 201.76 8.80593 201.792 8.83735Z" fill="#1F2933" stroke="white" stroke-width="0.311465"/>
                    <path d="M198.6 10.8389C198.552 10.7844 198.515 10.738 198.488 10.7028C198.82 10.5122 199.149 10.361 199.554 10.2817C199.994 10.1956 200.528 10.1929 201.259 10.3235L201.273 10.238L201.259 10.3235C202.2 10.4919 202.931 10.8887 203.428 11.2437C203.676 11.4212 203.865 11.5879 203.992 11.7099C204.038 11.7538 204.075 11.7918 204.104 11.8225C204.101 11.8242 204.097 11.826 204.093 11.8278C203.947 11.9004 203.739 12.0035 203.41 12.0878C202.983 12.1974 202.353 12.2725 201.42 12.1851C200.361 12.0861 199.614 11.6941 199.131 11.3285C198.89 11.1456 198.715 10.9691 198.6 10.8389Z" fill="#1F2933" stroke="white" stroke-width="0.311465"/>
                    <path d="M200.141 13.5521C200.519 13.4082 200.928 13.263 201.447 13.2324C202.013 13.199 202.717 13.302 203.655 13.7054L203.689 13.6222L203.655 13.7054C204.565 14.0973 205.274 14.6949 205.755 15.196C205.996 15.4464 206.179 15.672 206.303 15.8347C206.35 15.8972 206.388 15.9504 206.417 15.992C205.964 16.1201 204.743 16.4636 203.078 15.9814L203.054 16.0683L203.078 15.9814C201.499 15.5247 200.481 14.0693 200.141 13.5521Z" fill="#1F2933" stroke="white" stroke-width="0.311465"/>
                    <path d="M207.739 19.7627C207.289 19.8598 206.077 20.1198 204.487 19.5008C202.982 18.9145 202.089 17.3474 201.793 16.7921C202.171 16.6732 202.58 16.5552 203.087 16.5629C203.641 16.5712 204.319 16.7296 205.205 17.2132C206.065 17.683 206.714 18.3483 207.149 18.8977C207.366 19.1721 207.529 19.417 207.638 19.593C207.68 19.6605 207.713 19.7178 207.739 19.7627Z" fill="#1F2933" stroke="white" stroke-width="0.311465"/>
                    <path d="M206.143 20.844C206.727 21.3839 207.122 21.925 207.469 22.4605C207.577 22.6282 207.681 22.7964 207.785 22.9643C207.981 23.2809 208.176 23.596 208.397 23.9036C207.845 23.9186 206.376 23.9448 205.037 22.9431C203.818 22.032 203.199 20.8365 202.781 20.021C202.863 20.0106 202.946 19.9982 203.033 19.9855C203.378 19.9344 203.76 19.8779 204.188 19.9136C204.77 19.9622 205.429 20.1838 206.143 20.844Z" fill="#1F2933" stroke="white" stroke-width="0.311465"/>
                    <path d="M203.445 23.5838C203.525 23.5831 203.607 23.5807 203.691 23.5785C204.049 23.5688 204.441 23.5582 204.87 23.6482C205.447 23.7694 206.084 24.0746 206.744 24.8274C207.524 25.7186 207.903 26.4137 208.309 27.1574C208.442 27.4007 208.577 27.6491 208.731 27.9114C208.712 27.9111 208.693 27.9105 208.672 27.9101C208.084 27.897 206.72 27.8665 205.501 26.7346C204.352 25.6678 203.787 24.4472 203.445 23.5838Z" fill="#1F2933" stroke="white" stroke-width="0.311465"/>
                    <path d="M202.781 26.5762C202.824 26.5797 202.868 26.5832 202.913 26.5869C203.74 26.6528 204.841 26.7404 205.736 27.947C206.205 28.5801 206.409 28.9813 206.616 29.4177C206.635 29.4571 206.654 29.4968 206.673 29.537C206.848 29.9064 207.042 30.3172 207.406 30.9153C207.249 30.876 207.084 30.8459 206.915 30.8157C206.901 30.8133 206.887 30.8106 206.873 30.8082C206.635 30.7656 206.386 30.7214 206.13 30.6508C205.59 30.5018 205.014 30.2356 204.449 29.6229C203.428 28.5175 203.036 27.4201 202.781 26.5762Z" fill="#1F2933" stroke="white" stroke-width="0.311465"/>
                    <path d="M205.059 30.9364C205.349 31.4114 205.467 31.8585 205.594 32.3672C205.599 32.3854 205.604 32.4039 205.608 32.4223C205.718 32.8617 205.839 33.3454 206.087 33.919C205.957 33.8619 205.826 33.8088 205.693 33.7551C205.005 33.4762 204.291 33.1873 203.723 32.305L203.646 32.3523L203.723 32.305C203.335 31.7028 203.184 31.4042 203.042 31.0103C202.984 30.8502 202.928 30.6746 202.858 30.4557C202.841 30.4023 202.823 30.3465 202.804 30.2876C202.716 30.0145 202.606 29.6798 202.453 29.2461C202.853 29.2838 203.251 29.334 203.657 29.5299C204.109 29.7474 204.579 30.1496 205.059 30.9364Z" fill="#1F2933" stroke="white" stroke-width="0.311465"/>
                    <path d="M201.465 31.582C201.864 31.6969 202.259 31.8231 202.634 32.0997C203.046 32.4045 203.44 32.8984 203.768 33.7807C203.965 34.3126 203.97 34.6883 203.972 35.1265C203.972 35.1343 203.972 35.1421 203.972 35.1501C203.973 35.5372 203.975 35.9716 204.108 36.5887C204.027 36.5303 203.946 36.4718 203.864 36.4129C203.607 36.2281 203.342 36.0378 203.087 35.828C202.683 35.4958 202.319 35.1259 202.083 34.6816C201.557 33.6896 201.53 33.0263 201.498 32.2122C201.489 32.0135 201.481 31.8058 201.465 31.582Z" fill="#1F2933" stroke="white" stroke-width="0.311465"/>
                    <path d="M200.313 33.9222C200.313 33.9222 200.313 33.922 200.313 33.9219C200.313 33.922 200.313 33.922 200.313 33.922C200.352 33.9319 200.409 33.9487 200.478 33.9754C200.617 34.0291 200.802 34.1231 200.99 34.2833C201.364 34.6015 201.755 35.1895 201.79 36.2741C201.823 37.3013 201.677 38.066 201.524 38.572C201.448 38.8252 201.369 39.0137 201.311 39.1383C201.286 39.1911 201.264 39.2326 201.248 39.2624C201.22 39.2499 201.183 39.2315 201.14 39.2055C201.033 39.1428 200.886 39.0357 200.729 38.8598C200.414 38.5087 200.052 37.879 199.895 36.769L199.812 36.7818L199.895 36.769C199.784 35.9906 199.895 35.2638 200.035 34.7301C200.105 34.4634 200.181 34.2459 200.24 34.0953C200.27 34.0201 200.295 33.9617 200.313 33.9222Z" fill="#1F2933" stroke="white" stroke-width="0.311465"/>
                    <path d="M197.728 36.2608C197.729 36.2584 197.73 36.2562 197.731 36.2539C197.732 36.2541 197.733 36.2541 197.733 36.2543C197.773 36.26 197.832 36.2711 197.902 36.2921C198.042 36.3342 198.229 36.4166 198.416 36.577C198.788 36.8958 199.173 37.5383 199.149 38.8393C199.134 39.6913 198.945 40.3997 198.76 40.8945C198.668 41.142 198.576 41.336 198.508 41.4676C198.481 41.5198 198.458 41.5623 198.44 41.5944C198.413 41.5784 198.38 41.5573 198.342 41.53C198.235 41.4541 198.089 41.3311 197.935 41.1453C197.629 40.7747 197.292 40.1501 197.191 39.141C197.111 38.3558 197.253 37.6203 197.415 37.0797C197.496 36.8098 197.582 36.5894 197.648 36.4365C197.681 36.3602 197.708 36.3009 197.728 36.2608Z" fill="#1F2933" stroke="white" stroke-width="0.311465"/>
                    <path d="M131.047 15.8269H134.08V15.0326H131.935V13.9777H133.544V13.196H131.935V12.1094H133.946V11.315H131.047V15.8269Z" fill="#1F2933"/>
                    <path d="M134.472 14.2573H136.407V13.4756H134.472V14.2573Z" fill="#1F2933"/>
                    <path d="M137.717 15.8269H138.624V12.1094H139.882V11.315H136.478V12.1094H137.717V15.8269Z" fill="#1F2933"/>
                    <path d="M140.483 15.8269H141.37V14.2827H141.888L142.903 15.8269H143.97L142.833 14.1747C143.459 13.9713 143.778 13.5011 143.778 12.8147C143.778 11.9505 143.293 11.315 142.201 11.315H140.483V15.8269ZM141.37 13.4947V12.1094H142.06C142.577 12.1094 142.852 12.3826 142.852 12.802C142.852 13.2151 142.571 13.4947 142.022 13.4947H141.37Z" fill="#1F2933"/>
                    <path d="M144.216 15.8269H145.154L145.461 14.9245H147.198L147.511 15.8269H148.45L146.764 11.315H145.895L144.216 15.8269ZM145.716 14.162L146.323 12.3953H146.336L146.943 14.162H145.716Z" fill="#1F2933"/>
                    <path d="M149.75 15.8269H150.542L152.222 11.315H151.264L150.159 14.5432H150.146L149.035 11.315H148.064L149.75 15.8269Z" fill="#1F2933"/>
                    <path d="M152.769 15.8269H155.802V15.0326H153.657V13.9777H155.266V13.196H153.657V12.1094H155.668V11.315H152.769V15.8269Z" fill="#1F2933"/>
                    <path d="M156.523 15.8269H159.442V15.0326H157.436V11.315H156.523V15.8269Z" fill="#1F2933"/>
                    <path d="M163.77 15.8714C164.568 15.8714 165.181 15.5028 165.571 15.0199L164.913 14.4543C164.639 14.7911 164.243 15.0262 163.77 15.0262C162.959 15.0262 162.397 14.4225 162.397 13.5837C162.397 12.6813 162.985 12.1094 163.757 12.1094C164.223 12.1094 164.607 12.3254 164.9 12.6813L165.565 12.1284C165.079 11.5374 164.409 11.2578 163.757 11.2578C162.289 11.2578 161.458 12.2936 161.458 13.5837C161.458 15.0707 162.506 15.8714 163.77 15.8714Z" fill="#1F2933"/>
                    <path d="M168.317 15.8841C169.645 15.8841 170.622 14.9436 170.622 13.571C170.622 12.192 169.645 11.2578 168.317 11.2578C166.944 11.2578 166.005 12.2301 166.005 13.571C166.005 14.9118 166.944 15.8841 168.317 15.8841ZM168.317 15.0453C167.499 15.0453 166.937 14.3907 166.937 13.571C166.937 12.7512 167.499 12.0966 168.317 12.0966C169.096 12.0966 169.683 12.7194 169.683 13.571C169.683 14.4225 169.096 15.0453 168.317 15.0453Z" fill="#1F2933"/>
                    <path d="M171.366 15.8269H172.26V13.0308H172.273L173.372 14.9754H173.953L175.058 13.0372H175.07V15.8269H175.964V11.315H175.064L173.672 13.8823H173.659L172.267 11.315H171.366V15.8269Z" fill="#1F2933"/>
                    <path d="M176.892 15.8269H177.779V14.2827H178.482C179.478 14.2827 180.149 13.8061 180.149 12.8147C180.149 11.9505 179.67 11.315 178.571 11.315H176.892V15.8269ZM177.779 13.4947V12.1094H178.431C178.948 12.1094 179.216 12.3826 179.216 12.802C179.216 13.2151 178.948 13.4947 178.386 13.4947H177.779Z" fill="#1F2933"/>
                    <path d="M180.032 15.8269H180.971L181.277 14.9245H183.014L183.327 15.8269H184.266L182.58 11.315H181.712L180.032 15.8269ZM181.533 14.162L182.14 12.3953H182.152L182.759 14.162H181.533Z" fill="#1F2933"/>
                    <path d="M184.794 15.8269H185.688V12.8465H185.7L187.712 15.8269H188.612V11.315H187.725V14.359H187.712L185.675 11.315H184.794V15.8269Z" fill="#1F2933"/>
                    <path d="M190.6 15.8269H191.506V13.8442L193.014 11.315H191.973L191.066 12.9545H191.053L190.127 11.315H189.099L190.6 13.8442V15.8269Z" fill="#1F2933"/>
                    <path d="M144.256 25.7693C145.584 25.7693 146.561 24.8288 146.561 23.4562C146.561 22.0772 145.584 21.143 144.256 21.143C142.883 21.143 141.944 22.1153 141.944 23.4562C141.944 24.7971 142.883 25.7693 144.256 25.7693ZM144.256 24.9305C143.438 24.9305 142.876 24.276 142.876 23.4562C142.876 22.6364 143.438 21.9819 144.256 21.9819C145.035 21.9819 145.622 22.6047 145.622 23.4562C145.622 24.3077 145.035 24.9305 144.256 24.9305Z" fill="#1F2933"/>
                    <path d="M147.299 25.7121H148.187V24.0027H149.956V23.202H148.187V21.9946H150.307V21.2002H147.299V25.7121Z" fill="#1F2933"/>
                    <path d="M153.483 25.7121H154.39V21.9946H155.648V21.2002H152.244V21.9946H153.483V25.7121Z" fill="#1F2933"/>
                    <path d="M156.249 25.7121H157.156V23.9455H159.008V25.7121H159.908V21.2002H159.008V23.1512H157.156V21.2002H156.249V25.7121Z" fill="#1F2933"/>
                    <path d="M160.826 25.7121H163.86V24.9178H161.714V23.8629H163.323V23.0813H161.714V21.9946H163.726V21.2002H160.826V25.7121Z" fill="#1F2933"/>
                    <path d="M167.219 25.7121H168.126V23.7294L169.633 21.2002H168.592L167.685 22.8398H167.672L166.746 21.2002H165.718L167.219 23.7294V25.7121Z" fill="#1F2933"/>
                    <path d="M170.119 25.7121H173.152V24.9178H171.007V23.8629H172.616V23.0813H171.007V21.9946H173.018V21.2002H170.119V25.7121Z" fill="#1F2933"/>
                    <path d="M173.471 25.7121H174.41L174.717 24.8098H176.454L176.767 25.7121H177.705L176.019 21.2002H175.151L173.471 25.7121ZM174.972 24.0472L175.579 22.2806H175.592L176.198 24.0472H174.972Z" fill="#1F2933"/>
                    <path d="M178.233 25.7121H179.12V24.1679H179.638L180.653 25.7121H181.72L180.583 24.0599C181.209 23.8565 181.528 23.3863 181.528 22.7C181.528 21.8357 181.043 21.2002 179.951 21.2002H178.233V25.7121ZM179.12 23.3799V21.9946H179.81C180.327 21.9946 180.602 22.2678 180.602 22.6873C180.602 23.1003 180.321 23.3799 179.772 23.3799H179.12Z" fill="#1F2933"/>
                </svg>